<?xml version="1.0" encoding="UTF-8" standalone="no"?>
<!-- Created with Inkscape (http://www.inkscape.org/) -->

<svg
   xmlns:dc="http://purl.org/dc/elements/1.1/"
   xmlns:cc="http://creativecommons.org/ns#"
   xmlns:rdf="http://www.w3.org/1999/02/22-rdf-syntax-ns#"
   xmlns:svg="http://www.w3.org/2000/svg"
   xmlns="http://www.w3.org/2000/svg"
   xmlns:sodipodi="http://sodipodi.sourceforge.net/DTD/sodipodi-0.dtd"
   xmlns:inkscape="http://www.inkscape.org/namespaces/inkscape"
   width="210mm"
   height="297mm"
   viewBox="0 0 744.09448819 1052.3622047"
   id="svg2"
   version="1.1"
   inkscape:version="0.48.0 r9654"
   sodipodi:docname="schablone1.svg">
  <defs
     id="defs4" />
  <sodipodi:namedview
     id="base"
     pagecolor="#ffffff"
     bordercolor="#666666"
     borderopacity="1.0"
     inkscape:pageopacity="0.0"
     inkscape:pageshadow="2"
     inkscape:zoom="1.0729879"
     inkscape:cx="551.94849"
     inkscape:cy="14.305194"
     inkscape:document-units="px"
     inkscape:current-layer="layer1"
     showgrid="false"
     showborder="false"
     inkscape:window-width="1440"
     inkscape:window-height="813"
     inkscape:window-x="0"
     inkscape:window-y="1"
     inkscape:window-maximized="1" />
  <metadata
     id="metadata7">
    <rdf:RDF>
      <cc:Work
         rdf:about="">
        <dc:format>image/svg+xml</dc:format>
        <dc:type
           rdf:resource="http://purl.org/dc/dcmitype/StillImage" />
        <dc:title />
      </cc:Work>
    </rdf:RDF>
  </metadata>
  <g
     inkscape:label="Ebene 1"
     inkscape:groupmode="layer"
     id="layer1">
    <path
       style="fill:#f6d973;fill-opacity:1;fill-rule:evenodd;stroke:none"
       d="m 0,1052.3622 0,-141.73228 1133.8583,0 0,141.73228 -107.3858,0 0,-70.86614 -10.63,0 0,70.86614 -102.75587,0 0,-70.86614 -10.62992,0 0,70.86614 -102.75591,0 0,-70.86614 -10.62992,0 0,70.86614 -102.75591,0 0,-70.86614 -10.62992,0 0,70.86614 -102.75591,0 0,-70.86614 -10.62992,0 0,70.86614 -102.75591,0 0,-70.86614 -10.62992,0 0,70.86614 -102.75591,0 0,-70.86614 -10.62992,0 0,70.86614 -102.75591,0 0,-70.86614 -10.62992,0 0,70.86614 -100.27559,0 0,-70.86614 -13.11024,0 0,70.86614 z"
       id="path3336"
       inkscape:connector-curvature="0"
       sodipodi:nodetypes="ccccccccccccccccccccccccccccccccccccccccc" />
  </g>
</svg>
