<?xml version="1.0" encoding="UTF-8" standalone="no"?>
<!-- Created with Inkscape (http://www.inkscape.org/) -->

<svg
   xmlns:dc="http://purl.org/dc/elements/1.1/"
   xmlns:cc="http://creativecommons.org/ns#"
   xmlns:rdf="http://www.w3.org/1999/02/22-rdf-syntax-ns#"
   xmlns:svg="http://www.w3.org/2000/svg"
   xmlns="http://www.w3.org/2000/svg"
   xmlns:sodipodi="http://sodipodi.sourceforge.net/DTD/sodipodi-0.dtd"
   xmlns:inkscape="http://www.inkscape.org/namespaces/inkscape"
   width="210mm"
   height="297mm"
   viewBox="0 0 744.09448819 1052.3622047"
   id="svg2"
   version="1.1"
   inkscape:version="0.91 r13725"
   sodipodi:docname="schablone1.svg">
  <defs
     id="defs4" />
  <sodipodi:namedview
     id="base"
     pagecolor="#ffffff"
     bordercolor="#666666"
     borderopacity="1.0"
     inkscape:pageopacity="0.0"
     inkscape:pageshadow="2"
     inkscape:zoom="1.07"
     inkscape:cx="609.8905"
     inkscape:cy="14.305194"
     inkscape:document-units="px"
     inkscape:current-layer="layer1"
     showgrid="false"
     showborder="false"
     inkscape:window-width="1680"
     inkscape:window-height="954"
     inkscape:window-x="1680"
     inkscape:window-y="244"
     inkscape:window-maximized="1" />
  <metadata
     id="metadata7">
    <rdf:RDF>
      <cc:Work
         rdf:about="">
        <dc:format>image/svg+xml</dc:format>
        <dc:type
           rdf:resource="http://purl.org/dc/dcmitype/StillImage" />
        <dc:title></dc:title>
      </cc:Work>
    </rdf:RDF>
  </metadata>
  <g
     inkscape:label="Ebene 1"
     inkscape:groupmode="layer"
     id="layer1">
    <path
       style="fill:#f6d973;fill-opacity:1;fill-rule:evenodd;stroke:none;stroke-width:1px;stroke-linecap:butt;stroke-linejoin:miter;stroke-opacity:1"
       d="m 0,1052.3622 0,-124.01574 1179.9213,0 0,124.01574 -113.0316,0 0,-62.00787 -10.6299,0 0,62.00787 -107.36214,0 0,-62.00787 -10.62992,0 0,62.00787 -107.36221,0 0,-62.00787 -10.62992,0 0,62.00787 -107.3622,0 0,-62.00787 -10.62993,0 0,62.00787 -107.3622,0 0,-62.00787 -10.62992,0 0,62.00787 -107.36221,0 0,-62.00787 -10.62992,0 0,62.00787 -108.42519,0 0,-62.00787 -9.56693,0 0,62.00787 -107.36221,0 0,-61.1383 -10.62992,0 0,61.1383 -107.3622,0 0,-62.00787 -10.62993,0 0,62.00787 z"
       id="path3336"
       inkscape:connector-curvature="0"
       sodipodi:nodetypes="ccccccccccccccccccccccccccccccccccccccccc" />
  </g>
</svg>
